<mxfile host="app.diagrams.net" agent="Mozilla/5.0 (Windows NT 10.0; Win64; x64) AppleWebKit/537.36 (KHTML, like Gecko) Chrome/123.0.0.0 Safari/537.36 OPR/109.0.0.0" version="24.7.7">
  <diagram name="Page-1" id="ofUPiSDfgQcPQMoywFBR">
    <mxGraphModel dx="2243" dy="1876" grid="1" gridSize="10" guides="1" tooltips="1" connect="1" arrows="1" fold="1" page="1" pageScale="1" pageWidth="850" pageHeight="1100" math="0" shadow="0">
      <root>
        <mxCell id="0" />
        <mxCell id="1" parent="0" />
        <mxCell id="4B9UH_jPUJwn8KhNzg1P-1" value="start" style="strokeWidth=2;html=1;shape=mxgraph.flowchart.start_2;whiteSpace=wrap;" vertex="1" parent="1">
          <mxGeometry x="120" y="50" width="70" height="70" as="geometry" />
        </mxCell>
        <mxCell id="4B9UH_jPUJwn8KhNzg1P-2" value="" style="verticalLabelPosition=bottom;verticalAlign=top;html=1;shape=process;whiteSpace=wrap;rounded=1;size=0.14;arcSize=6;" vertex="1" parent="1">
          <mxGeometry x="310" y="60" width="510" height="110" as="geometry" />
        </mxCell>
        <mxCell id="4B9UH_jPUJwn8KhNzg1P-3" value="function inputModelHeight&lt;div&gt;&lt;span style=&quot;white-space: pre;&quot;&gt;&#x9;&lt;/span&gt;&lt;span style=&quot;background-color: initial;&quot;&gt;print &quot;What is the internal height of your fridge in inches? :&quot;&lt;br&gt;&#x9;&lt;span style=&quot;white-space: pre;&quot;&gt;&#x9;&lt;/span&gt;input IN_model_height&lt;br&gt;&#x9;&lt;span style=&quot;white-space: pre;&quot;&gt;&#x9;&lt;/span&gt;if (IN_model_height &amp;lt;= 0) then&lt;br&gt;&#x9;&#x9;&lt;span style=&quot;white-space: pre;&quot;&gt;&#x9;&lt;span style=&quot;white-space: pre;&quot;&gt;&#x9;&lt;/span&gt;&lt;/span&gt;inputModelHeight()&lt;br&gt;&#x9;&lt;span style=&quot;white-space: pre;&quot;&gt;&#x9;&lt;/span&gt;else&lt;br&gt;end&lt;/span&gt;&lt;br&gt;&lt;/div&gt;" style="text;html=1;align=left;verticalAlign=middle;whiteSpace=wrap;rounded=0;" vertex="1" parent="1">
          <mxGeometry x="380" y="60" width="370" height="110" as="geometry" />
        </mxCell>
        <mxCell id="4B9UH_jPUJwn8KhNzg1P-4" value="" style="verticalLabelPosition=bottom;verticalAlign=top;html=1;shape=process;whiteSpace=wrap;rounded=1;size=0.14;arcSize=6;" vertex="1" parent="1">
          <mxGeometry x="310" y="180" width="510" height="110" as="geometry" />
        </mxCell>
        <mxCell id="4B9UH_jPUJwn8KhNzg1P-5" value="function inputModelWidth&#xa;    print &quot;What is the internal width of your fridge in inches? :&quot;&#xa;    input IN_model_width&#xa;    if (IN_model_width &lt;= 0) then&#xa;        inputModelWidth()&#xa;    else&#xa;end" style="text;html=1;align=left;verticalAlign=middle;whiteSpace=wrap;rounded=0;" vertex="1" parent="1">
          <mxGeometry x="380" y="180" width="370" height="110" as="geometry" />
        </mxCell>
        <mxCell id="4B9UH_jPUJwn8KhNzg1P-6" value="" style="verticalLabelPosition=bottom;verticalAlign=top;html=1;shape=process;whiteSpace=wrap;rounded=1;size=0.14;arcSize=6;" vertex="1" parent="1">
          <mxGeometry x="310" y="300" width="510" height="110" as="geometry" />
        </mxCell>
        <mxCell id="4B9UH_jPUJwn8KhNzg1P-7" value="function inputModelDepth&lt;br&gt;&amp;nbsp;&amp;nbsp;&amp;nbsp;&amp;nbsp;print &quot;What is the internal depth of your fridge in inches? :&quot;&lt;br&gt;&amp;nbsp;&amp;nbsp;&amp;nbsp;&amp;nbsp;input IN_model_depth&lt;br&gt;&amp;nbsp;&amp;nbsp;&amp;nbsp;&amp;nbsp;if (IN_model_depth &amp;lt;= 0) then&lt;br&gt;&amp;nbsp;&amp;nbsp;&amp;nbsp;&amp;nbsp;&amp;nbsp;&amp;nbsp;&amp;nbsp;&amp;nbsp;inputModelDepth()&lt;br&gt;&amp;nbsp;&amp;nbsp;&amp;nbsp;&amp;nbsp;else&lt;br&gt;end" style="text;html=1;align=left;verticalAlign=middle;whiteSpace=wrap;rounded=0;" vertex="1" parent="1">
          <mxGeometry x="380" y="300" width="370" height="110" as="geometry" />
        </mxCell>
        <mxCell id="4B9UH_jPUJwn8KhNzg1P-8" value="modelName = &quot;&quot;" style="rounded=1;whiteSpace=wrap;html=1;absoluteArcSize=1;arcSize=14;strokeWidth=2;" vertex="1" parent="1">
          <mxGeometry x="50" y="160" width="230" height="50" as="geometry" />
        </mxCell>
        <mxCell id="4B9UH_jPUJwn8KhNzg1P-9" value="IN_model_height = 0" style="rounded=1;whiteSpace=wrap;html=1;absoluteArcSize=1;arcSize=14;strokeWidth=2;" vertex="1" parent="1">
          <mxGeometry x="50" y="230" width="230" height="50" as="geometry" />
        </mxCell>
        <mxCell id="4B9UH_jPUJwn8KhNzg1P-10" value="IN_model_width = 0" style="rounded=1;whiteSpace=wrap;html=1;absoluteArcSize=1;arcSize=14;strokeWidth=2;" vertex="1" parent="1">
          <mxGeometry x="50" y="300" width="230" height="50" as="geometry" />
        </mxCell>
        <mxCell id="4B9UH_jPUJwn8KhNzg1P-11" value="IN_model_depth = 0" style="rounded=1;whiteSpace=wrap;html=1;absoluteArcSize=1;arcSize=14;strokeWidth=2;" vertex="1" parent="1">
          <mxGeometry x="50" y="370" width="230" height="50" as="geometry" />
        </mxCell>
        <mxCell id="4B9UH_jPUJwn8KhNzg1P-12" value="float CALC_model_in = 0.0" style="rounded=1;whiteSpace=wrap;html=1;absoluteArcSize=1;arcSize=14;strokeWidth=2;" vertex="1" parent="1">
          <mxGeometry x="50" y="440" width="230" height="50" as="geometry" />
        </mxCell>
        <mxCell id="4B9UH_jPUJwn8KhNzg1P-13" value="float OUT_model_ft = 0.0" style="rounded=1;whiteSpace=wrap;html=1;absoluteArcSize=1;arcSize=14;strokeWidth=2;" vertex="1" parent="1">
          <mxGeometry x="50" y="510" width="230" height="50" as="geometry" />
        </mxCell>
        <mxCell id="4B9UH_jPUJwn8KhNzg1P-14" value="INPUT_NOT_VALID =&amp;nbsp;&lt;div&gt;&quot;Either you have a 4th dimensional fridge, or you have a brick that you claim is a fridge...&quot;&lt;/div&gt;" style="rounded=1;whiteSpace=wrap;html=1;absoluteArcSize=1;arcSize=14;strokeWidth=2;" vertex="1" parent="1">
          <mxGeometry x="30" y="580" width="270" height="80" as="geometry" />
        </mxCell>
        <mxCell id="4B9UH_jPUJwn8KhNzg1P-15" value="print &quot;What is the model name of your refrigerator? :&quot;" style="shape=parallelogram;html=1;strokeWidth=2;perimeter=parallelogramPerimeter;whiteSpace=wrap;rounded=1;arcSize=12;size=0.23;" vertex="1" parent="1">
          <mxGeometry x="-70" y="680" width="420" height="50" as="geometry" />
        </mxCell>
        <mxCell id="4B9UH_jPUJwn8KhNzg1P-16" value="input modelName" style="shape=parallelogram;html=1;strokeWidth=2;perimeter=parallelogramPerimeter;whiteSpace=wrap;rounded=1;arcSize=12;size=0.23;" vertex="1" parent="1">
          <mxGeometry x="-70" y="750" width="420" height="50" as="geometry" />
        </mxCell>
        <mxCell id="4B9UH_jPUJwn8KhNzg1P-17" value="inputModelHeight()" style="shape=parallelogram;html=1;strokeWidth=2;perimeter=parallelogramPerimeter;whiteSpace=wrap;rounded=1;arcSize=12;size=0.23;" vertex="1" parent="1">
          <mxGeometry x="-30" y="835" width="340" height="50" as="geometry" />
        </mxCell>
        <mxCell id="4B9UH_jPUJwn8KhNzg1P-18" value="inputModelWidth()" style="shape=parallelogram;html=1;strokeWidth=2;perimeter=parallelogramPerimeter;whiteSpace=wrap;rounded=1;arcSize=12;size=0.23;" vertex="1" parent="1">
          <mxGeometry x="-35" y="915" width="350" height="50" as="geometry" />
        </mxCell>
        <mxCell id="4B9UH_jPUJwn8KhNzg1P-19" value="inputModelDepth()" style="shape=parallelogram;html=1;strokeWidth=2;perimeter=parallelogramPerimeter;whiteSpace=wrap;rounded=1;arcSize=12;size=0.23;" vertex="1" parent="1">
          <mxGeometry x="-35" y="995" width="350" height="50" as="geometry" />
        </mxCell>
        <mxCell id="4B9UH_jPUJwn8KhNzg1P-20" value="" style="endArrow=classic;html=1;rounded=0;exitX=0.5;exitY=1;exitDx=0;exitDy=0;exitPerimeter=0;entryX=0.5;entryY=0;entryDx=0;entryDy=0;" edge="1" parent="1" source="4B9UH_jPUJwn8KhNzg1P-1" target="4B9UH_jPUJwn8KhNzg1P-8">
          <mxGeometry width="50" height="50" relative="1" as="geometry">
            <mxPoint x="400" y="290" as="sourcePoint" />
            <mxPoint x="450" y="240" as="targetPoint" />
          </mxGeometry>
        </mxCell>
        <mxCell id="4B9UH_jPUJwn8KhNzg1P-21" value="" style="endArrow=classic;html=1;rounded=0;exitX=0.5;exitY=1;exitDx=0;exitDy=0;entryX=0.5;entryY=0;entryDx=0;entryDy=0;" edge="1" parent="1" source="4B9UH_jPUJwn8KhNzg1P-8" target="4B9UH_jPUJwn8KhNzg1P-9">
          <mxGeometry width="50" height="50" relative="1" as="geometry">
            <mxPoint x="400" y="290" as="sourcePoint" />
            <mxPoint x="450" y="240" as="targetPoint" />
          </mxGeometry>
        </mxCell>
        <mxCell id="4B9UH_jPUJwn8KhNzg1P-22" value="" style="endArrow=classic;html=1;rounded=0;exitX=0.5;exitY=1;exitDx=0;exitDy=0;entryX=0.5;entryY=0;entryDx=0;entryDy=0;" edge="1" parent="1" source="4B9UH_jPUJwn8KhNzg1P-9" target="4B9UH_jPUJwn8KhNzg1P-10">
          <mxGeometry width="50" height="50" relative="1" as="geometry">
            <mxPoint x="400" y="290" as="sourcePoint" />
            <mxPoint x="450" y="240" as="targetPoint" />
          </mxGeometry>
        </mxCell>
        <mxCell id="4B9UH_jPUJwn8KhNzg1P-23" value="" style="endArrow=classic;html=1;rounded=0;exitX=0.5;exitY=1;exitDx=0;exitDy=0;entryX=0.5;entryY=0;entryDx=0;entryDy=0;" edge="1" parent="1" source="4B9UH_jPUJwn8KhNzg1P-10" target="4B9UH_jPUJwn8KhNzg1P-11">
          <mxGeometry width="50" height="50" relative="1" as="geometry">
            <mxPoint x="400" y="290" as="sourcePoint" />
            <mxPoint x="450" y="240" as="targetPoint" />
          </mxGeometry>
        </mxCell>
        <mxCell id="4B9UH_jPUJwn8KhNzg1P-24" value="" style="endArrow=classic;html=1;rounded=0;exitX=0.5;exitY=1;exitDx=0;exitDy=0;entryX=0.5;entryY=0;entryDx=0;entryDy=0;" edge="1" parent="1" source="4B9UH_jPUJwn8KhNzg1P-11" target="4B9UH_jPUJwn8KhNzg1P-12">
          <mxGeometry width="50" height="50" relative="1" as="geometry">
            <mxPoint x="400" y="290" as="sourcePoint" />
            <mxPoint x="450" y="240" as="targetPoint" />
          </mxGeometry>
        </mxCell>
        <mxCell id="4B9UH_jPUJwn8KhNzg1P-25" value="" style="endArrow=classic;html=1;rounded=0;exitX=0.5;exitY=1;exitDx=0;exitDy=0;entryX=0.5;entryY=0;entryDx=0;entryDy=0;" edge="1" parent="1" source="4B9UH_jPUJwn8KhNzg1P-12" target="4B9UH_jPUJwn8KhNzg1P-13">
          <mxGeometry width="50" height="50" relative="1" as="geometry">
            <mxPoint x="400" y="490" as="sourcePoint" />
            <mxPoint x="450" y="440" as="targetPoint" />
          </mxGeometry>
        </mxCell>
        <mxCell id="4B9UH_jPUJwn8KhNzg1P-26" value="" style="endArrow=classic;html=1;rounded=0;exitX=0.5;exitY=1;exitDx=0;exitDy=0;entryX=0.5;entryY=0;entryDx=0;entryDy=0;" edge="1" parent="1" source="4B9UH_jPUJwn8KhNzg1P-13" target="4B9UH_jPUJwn8KhNzg1P-14">
          <mxGeometry width="50" height="50" relative="1" as="geometry">
            <mxPoint x="400" y="620" as="sourcePoint" />
            <mxPoint x="450" y="570" as="targetPoint" />
          </mxGeometry>
        </mxCell>
        <mxCell id="4B9UH_jPUJwn8KhNzg1P-27" value="" style="endArrow=classic;html=1;rounded=0;exitX=0.5;exitY=1;exitDx=0;exitDy=0;entryX=0.5;entryY=0;entryDx=0;entryDy=0;" edge="1" parent="1" source="4B9UH_jPUJwn8KhNzg1P-14" target="4B9UH_jPUJwn8KhNzg1P-15">
          <mxGeometry width="50" height="50" relative="1" as="geometry">
            <mxPoint x="400" y="620" as="sourcePoint" />
            <mxPoint x="450" y="570" as="targetPoint" />
          </mxGeometry>
        </mxCell>
        <mxCell id="4B9UH_jPUJwn8KhNzg1P-28" value="" style="endArrow=classic;html=1;rounded=0;exitX=0.5;exitY=1;exitDx=0;exitDy=0;entryX=0.5;entryY=0;entryDx=0;entryDy=0;" edge="1" parent="1" source="4B9UH_jPUJwn8KhNzg1P-15" target="4B9UH_jPUJwn8KhNzg1P-16">
          <mxGeometry width="50" height="50" relative="1" as="geometry">
            <mxPoint x="400" y="820" as="sourcePoint" />
            <mxPoint x="450" y="770" as="targetPoint" />
          </mxGeometry>
        </mxCell>
        <mxCell id="4B9UH_jPUJwn8KhNzg1P-29" value="" style="endArrow=classic;html=1;rounded=0;exitX=0.5;exitY=1;exitDx=0;exitDy=0;entryX=0.5;entryY=0;entryDx=0;entryDy=0;" edge="1" parent="1" source="4B9UH_jPUJwn8KhNzg1P-16" target="4B9UH_jPUJwn8KhNzg1P-17">
          <mxGeometry width="50" height="50" relative="1" as="geometry">
            <mxPoint x="400" y="820" as="sourcePoint" />
            <mxPoint x="450" y="770" as="targetPoint" />
          </mxGeometry>
        </mxCell>
        <mxCell id="4B9UH_jPUJwn8KhNzg1P-30" value="" style="endArrow=classic;html=1;rounded=0;exitX=0.5;exitY=1;exitDx=0;exitDy=0;entryX=0.5;entryY=0;entryDx=0;entryDy=0;" edge="1" parent="1" source="4B9UH_jPUJwn8KhNzg1P-17" target="4B9UH_jPUJwn8KhNzg1P-18">
          <mxGeometry width="50" height="50" relative="1" as="geometry">
            <mxPoint x="450" y="825" as="sourcePoint" />
            <mxPoint x="500" y="775" as="targetPoint" />
          </mxGeometry>
        </mxCell>
        <mxCell id="4B9UH_jPUJwn8KhNzg1P-31" value="" style="endArrow=classic;html=1;rounded=0;exitX=0.5;exitY=1;exitDx=0;exitDy=0;entryX=0.5;entryY=0;entryDx=0;entryDy=0;" edge="1" parent="1" source="4B9UH_jPUJwn8KhNzg1P-18" target="4B9UH_jPUJwn8KhNzg1P-19">
          <mxGeometry width="50" height="50" relative="1" as="geometry">
            <mxPoint x="450" y="825" as="sourcePoint" />
            <mxPoint x="500" y="775" as="targetPoint" />
          </mxGeometry>
        </mxCell>
        <mxCell id="4B9UH_jPUJwn8KhNzg1P-32" value="" style="endArrow=none;dashed=1;html=1;dashPattern=1 3;strokeWidth=2;rounded=0;" edge="1" parent="1">
          <mxGeometry width="50" height="50" relative="1" as="geometry">
            <mxPoint x="290" y="90" as="sourcePoint" />
            <mxPoint x="290" y="350" as="targetPoint" />
          </mxGeometry>
        </mxCell>
        <mxCell id="4B9UH_jPUJwn8KhNzg1P-33" value="" style="endArrow=none;dashed=1;html=1;dashPattern=1 3;strokeWidth=2;rounded=0;exitX=1;exitY=0.5;exitDx=0;exitDy=0;exitPerimeter=0;" edge="1" parent="1" source="4B9UH_jPUJwn8KhNzg1P-1">
          <mxGeometry width="50" height="50" relative="1" as="geometry">
            <mxPoint x="400" y="420" as="sourcePoint" />
            <mxPoint x="290" y="90" as="targetPoint" />
          </mxGeometry>
        </mxCell>
        <mxCell id="4B9UH_jPUJwn8KhNzg1P-34" value="" style="endArrow=none;dashed=1;html=1;dashPattern=1 3;strokeWidth=2;rounded=0;entryX=0;entryY=0.5;entryDx=0;entryDy=0;" edge="1" parent="1" target="4B9UH_jPUJwn8KhNzg1P-2">
          <mxGeometry width="50" height="50" relative="1" as="geometry">
            <mxPoint x="290" y="110" as="sourcePoint" />
            <mxPoint x="450" y="370" as="targetPoint" />
          </mxGeometry>
        </mxCell>
        <mxCell id="4B9UH_jPUJwn8KhNzg1P-35" value="" style="endArrow=none;dashed=1;html=1;dashPattern=1 3;strokeWidth=2;rounded=0;entryX=0;entryY=0.5;entryDx=0;entryDy=0;" edge="1" parent="1" target="4B9UH_jPUJwn8KhNzg1P-4">
          <mxGeometry width="50" height="50" relative="1" as="geometry">
            <mxPoint x="290" y="230" as="sourcePoint" />
            <mxPoint x="450" y="370" as="targetPoint" />
          </mxGeometry>
        </mxCell>
        <mxCell id="4B9UH_jPUJwn8KhNzg1P-36" value="" style="endArrow=none;dashed=1;html=1;dashPattern=1 3;strokeWidth=2;rounded=0;entryX=0;entryY=0.5;entryDx=0;entryDy=0;" edge="1" parent="1" target="4B9UH_jPUJwn8KhNzg1P-6">
          <mxGeometry width="50" height="50" relative="1" as="geometry">
            <mxPoint x="290" y="350" as="sourcePoint" />
            <mxPoint x="450" y="370" as="targetPoint" />
          </mxGeometry>
        </mxCell>
        <mxCell id="4B9UH_jPUJwn8KhNzg1P-37" value="stop" style="strokeWidth=2;html=1;shape=mxgraph.flowchart.terminator;whiteSpace=wrap;" vertex="1" parent="1">
          <mxGeometry x="555" y="855" width="100" height="60" as="geometry" />
        </mxCell>
        <mxCell id="4B9UH_jPUJwn8KhNzg1P-39" value="float CALC_model_in = IN_model_height * IN_model_width * IN_model_depth" style="rounded=1;whiteSpace=wrap;html=1;absoluteArcSize=1;arcSize=14;strokeWidth=2;" vertex="1" parent="1">
          <mxGeometry x="410" y="560" width="380" height="50" as="geometry" />
        </mxCell>
        <mxCell id="4B9UH_jPUJwn8KhNzg1P-40" value="float OUT_model_ft = CALC_model_in / 1728" style="rounded=1;whiteSpace=wrap;html=1;absoluteArcSize=1;arcSize=14;strokeWidth=2;" vertex="1" parent="1">
          <mxGeometry x="410" y="630" width="380" height="50" as="geometry" />
        </mxCell>
        <mxCell id="4B9UH_jPUJwn8KhNzg1P-41" value="" style="endArrow=classic;html=1;rounded=0;exitX=0.5;exitY=1;exitDx=0;exitDy=0;entryX=0.5;entryY=0;entryDx=0;entryDy=0;" edge="1" parent="1" source="4B9UH_jPUJwn8KhNzg1P-39" target="4B9UH_jPUJwn8KhNzg1P-40">
          <mxGeometry width="50" height="50" relative="1" as="geometry">
            <mxPoint x="820" y="610" as="sourcePoint" />
            <mxPoint x="870" y="560" as="targetPoint" />
          </mxGeometry>
        </mxCell>
        <mxCell id="4B9UH_jPUJwn8KhNzg1P-42" value="print &quot;Your refrigerator model name is &quot; + modelName + &quot;.&quot;" style="shape=parallelogram;html=1;strokeWidth=2;perimeter=parallelogramPerimeter;whiteSpace=wrap;rounded=1;arcSize=12;size=0.23;" vertex="1" parent="1">
          <mxGeometry x="380" y="700" width="450" height="50" as="geometry" />
        </mxCell>
        <mxCell id="4B9UH_jPUJwn8KhNzg1P-43" value="print &quot;Your refrigerator has a capacity of &quot; + OUT_model_ft + &quot;ft.&quot;" style="shape=parallelogram;html=1;strokeWidth=2;perimeter=parallelogramPerimeter;whiteSpace=wrap;rounded=1;arcSize=12;size=0.23;" vertex="1" parent="1">
          <mxGeometry x="370" y="770" width="470" height="50" as="geometry" />
        </mxCell>
        <mxCell id="4B9UH_jPUJwn8KhNzg1P-44" value="" style="endArrow=classic;html=1;rounded=0;exitX=0.5;exitY=1;exitDx=0;exitDy=0;entryX=0.5;entryY=0;entryDx=0;entryDy=0;" edge="1" parent="1" source="4B9UH_jPUJwn8KhNzg1P-42" target="4B9UH_jPUJwn8KhNzg1P-43">
          <mxGeometry width="50" height="50" relative="1" as="geometry">
            <mxPoint x="850" y="840" as="sourcePoint" />
            <mxPoint x="900" y="790" as="targetPoint" />
          </mxGeometry>
        </mxCell>
        <mxCell id="4B9UH_jPUJwn8KhNzg1P-45" value="" style="endArrow=none;html=1;rounded=0;exitX=1;exitY=0.5;exitDx=0;exitDy=0;" edge="1" parent="1" source="4B9UH_jPUJwn8KhNzg1P-19">
          <mxGeometry width="50" height="50" relative="1" as="geometry">
            <mxPoint x="400" y="760" as="sourcePoint" />
            <mxPoint x="360" y="1020" as="targetPoint" />
          </mxGeometry>
        </mxCell>
        <mxCell id="4B9UH_jPUJwn8KhNzg1P-46" value="" style="endArrow=none;html=1;rounded=0;" edge="1" parent="1">
          <mxGeometry width="50" height="50" relative="1" as="geometry">
            <mxPoint x="360" y="1020" as="sourcePoint" />
            <mxPoint x="360" y="580" as="targetPoint" />
          </mxGeometry>
        </mxCell>
        <mxCell id="4B9UH_jPUJwn8KhNzg1P-47" value="" style="endArrow=classic;html=1;rounded=0;entryX=0;entryY=0.5;entryDx=0;entryDy=0;" edge="1" parent="1" target="4B9UH_jPUJwn8KhNzg1P-39">
          <mxGeometry width="50" height="50" relative="1" as="geometry">
            <mxPoint x="360" y="580" as="sourcePoint" />
            <mxPoint x="450" y="710" as="targetPoint" />
          </mxGeometry>
        </mxCell>
        <mxCell id="4B9UH_jPUJwn8KhNzg1P-48" value="" style="endArrow=classic;html=1;rounded=0;exitX=0.5;exitY=1;exitDx=0;exitDy=0;entryX=0.5;entryY=0;entryDx=0;entryDy=0;" edge="1" parent="1" source="4B9UH_jPUJwn8KhNzg1P-40" target="4B9UH_jPUJwn8KhNzg1P-42">
          <mxGeometry width="50" height="50" relative="1" as="geometry">
            <mxPoint x="400" y="760" as="sourcePoint" />
            <mxPoint x="450" y="710" as="targetPoint" />
          </mxGeometry>
        </mxCell>
        <mxCell id="4B9UH_jPUJwn8KhNzg1P-49" value="" style="endArrow=classic;html=1;rounded=0;exitX=0.5;exitY=1;exitDx=0;exitDy=0;entryX=0.5;entryY=0;entryDx=0;entryDy=0;entryPerimeter=0;" edge="1" parent="1" source="4B9UH_jPUJwn8KhNzg1P-43" target="4B9UH_jPUJwn8KhNzg1P-37">
          <mxGeometry width="50" height="50" relative="1" as="geometry">
            <mxPoint x="400" y="760" as="sourcePoint" />
            <mxPoint x="450" y="710" as="targetPoint" />
          </mxGeometry>
        </mxCell>
        <mxCell id="4B9UH_jPUJwn8KhNzg1P-50" value="Calculate the cubic inches and feet" style="shape=note;whiteSpace=wrap;html=1;backgroundOutline=1;darkOpacity=0.05;" vertex="1" parent="1">
          <mxGeometry x="462.5" y="470" width="275" height="40" as="geometry" />
        </mxCell>
        <mxCell id="4B9UH_jPUJwn8KhNzg1P-51" value="" style="shape=flexArrow;endArrow=classic;html=1;rounded=0;exitX=0.5;exitY=1;exitDx=0;exitDy=0;exitPerimeter=0;" edge="1" parent="1" source="4B9UH_jPUJwn8KhNzg1P-50">
          <mxGeometry width="50" height="50" relative="1" as="geometry">
            <mxPoint x="425" y="560" as="sourcePoint" />
            <mxPoint x="600" y="550" as="targetPoint" />
          </mxGeometry>
        </mxCell>
        <mxCell id="4B9UH_jPUJwn8KhNzg1P-52" value="Run the program" style="shape=note;whiteSpace=wrap;html=1;backgroundOutline=1;darkOpacity=0.05;" vertex="1" parent="1">
          <mxGeometry x="-270" y="655" width="80" height="100" as="geometry" />
        </mxCell>
        <mxCell id="4B9UH_jPUJwn8KhNzg1P-54" value="" style="shape=flexArrow;endArrow=classic;html=1;rounded=0;exitX=0;exitY=0;exitDx=80;exitDy=65;exitPerimeter=0;" edge="1" parent="1" source="4B9UH_jPUJwn8KhNzg1P-52">
          <mxGeometry width="50" height="50" relative="1" as="geometry">
            <mxPoint x="90" y="810" as="sourcePoint" />
            <mxPoint x="-80" y="720" as="targetPoint" />
          </mxGeometry>
        </mxCell>
        <mxCell id="4B9UH_jPUJwn8KhNzg1P-56" value="Define the functions used" style="shape=note;whiteSpace=wrap;html=1;backgroundOutline=1;darkOpacity=0.05;" vertex="1" parent="1">
          <mxGeometry x="390" y="-100" width="80" height="100" as="geometry" />
        </mxCell>
        <mxCell id="4B9UH_jPUJwn8KhNzg1P-57" value="" style="shape=flexArrow;endArrow=classic;html=1;rounded=0;exitX=0.5;exitY=1;exitDx=0;exitDy=0;exitPerimeter=0;" edge="1" parent="1" source="4B9UH_jPUJwn8KhNzg1P-56">
          <mxGeometry width="50" height="50" relative="1" as="geometry">
            <mxPoint x="90" y="140" as="sourcePoint" />
            <mxPoint x="430" y="50" as="targetPoint" />
          </mxGeometry>
        </mxCell>
        <mxCell id="4B9UH_jPUJwn8KhNzg1P-58" value="Define the variables" style="shape=note;whiteSpace=wrap;html=1;backgroundOutline=1;darkOpacity=0.05;" vertex="1" parent="1">
          <mxGeometry x="-180" y="135" width="80" height="100" as="geometry" />
        </mxCell>
        <mxCell id="4B9UH_jPUJwn8KhNzg1P-59" value="" style="shape=flexArrow;endArrow=classic;html=1;rounded=0;exitX=0;exitY=0;exitDx=80;exitDy=65;exitPerimeter=0;" edge="1" parent="1" source="4B9UH_jPUJwn8KhNzg1P-58">
          <mxGeometry width="50" height="50" relative="1" as="geometry">
            <mxPoint x="90" y="470" as="sourcePoint" />
            <mxPoint x="30" y="190" as="targetPoint" />
          </mxGeometry>
        </mxCell>
      </root>
    </mxGraphModel>
  </diagram>
</mxfile>
